<svg width="15" height="18" viewBox="0 0 15 18" fill="none" xmlns="http://www.w3.org/2000/svg">
<path d="M7.3968 4.20429C8.35652 4.20429 9.19844 3.82953 9.92253 3.07999C10.6466 2.33045 11.0087 1.45886 11.0087 0.465233C11.0087 0.356105 11.0001 0.201027 10.9828 0C10.8564 0.0172309 10.7616 0.0315899 10.6984 0.0430772C9.81335 0.169437 9.03465 0.60308 8.36226 1.34399C7.68989 2.08492 7.35371 2.87754 7.35371 3.72185C7.35371 3.81947 7.36807 3.98031 7.3968 4.20429ZM10.8363 17.3772C11.5202 17.3772 12.2759 16.9091 13.1034 15.9729C13.931 15.0367 14.5631 13.9368 14.9999 12.6732C13.3735 11.8346 12.5603 10.6314 12.5603 9.06336C12.5603 7.75384 13.2183 6.63385 14.5344 5.70338C13.6206 4.5604 12.4138 3.98891 10.9139 3.98891C10.2817 3.98891 9.70417 4.08368 9.1812 4.27322L8.85364 4.39383L8.41399 4.56614C8.12665 4.67527 7.86517 4.72985 7.62955 4.72985C7.44564 4.72985 7.20426 4.66666 6.90545 4.5403L6.56925 4.40245L6.25031 4.27322C5.7848 4.07794 5.28483 3.98029 4.75038 3.98029C3.31942 3.98029 2.17005 4.46276 1.30227 5.42769C0.434492 6.3926 0.000610352 7.66481 0.000610352 9.24429C0.000610352 11.467 0.695973 13.5204 2.08672 15.4043C3.05219 16.7196 3.93433 17.3772 4.73314 17.3772C5.07221 17.3772 5.4084 17.3111 5.74171 17.179L6.1641 17.0067L6.50031 16.8861C6.97154 16.7196 7.40542 16.6363 7.80195 16.6363C8.22147 16.6363 8.70421 16.7425 9.25016 16.955L9.51739 17.0584C10.0748 17.2709 10.5145 17.3772 10.8363 17.3772Z" fill="black"/>
</svg>
