<svg width="25" height="24" viewBox="0 0 25 24" fill="none" xmlns="http://www.w3.org/2000/svg">
<path d="M2.72911 6.69908C2.56594 6.31836 2.12503 6.14199 1.74431 6.30516C1.36359 6.46833 1.18722 6.90924 1.35039 7.28996L2.72911 6.69908ZM9.08119 13.7322C9.3071 13.3851 9.20879 12.9205 8.8616 12.6946C8.51441 12.4687 8.04983 12.567 7.82392 12.9142L9.08119 13.7322ZM6.41111 15.0855C6.1852 15.4326 6.28352 15.8972 6.63071 16.1231C6.9779 16.349 7.44248 16.2507 7.66839 15.9035L6.41111 15.0855ZM22.7291 7.28996C22.8922 6.90924 22.7159 6.46833 22.3351 6.30516C21.9544 6.14199 21.5135 6.31836 21.3503 6.69908L22.7291 7.28996ZM20.0094 13.1537C20.3023 13.4466 20.7771 13.4466 21.07 13.1537C21.3629 12.8608 21.3629 12.3859 21.07 12.093L20.0094 13.1537ZM11.2897 16.4945C11.2897 16.9087 11.6255 17.2445 12.0397 17.2445C12.4539 17.2445 12.7897 16.9087 12.7897 16.4945H11.2897ZM16.4111 15.9035C16.637 16.2507 17.1016 16.349 17.4487 16.1231C17.7959 15.8972 17.8942 15.4326 17.6683 15.0855L16.4111 15.9035ZM5.57008 11.6537C5.86297 11.3608 5.86297 10.8859 5.57008 10.593C5.27719 10.3001 4.80231 10.3001 4.50942 10.593L5.57008 11.6537ZM3.00942 12.093C2.71653 12.3859 2.71653 12.8608 3.00942 13.1537C3.30231 13.4466 3.77719 13.4466 4.07008 13.1537L3.00942 12.093ZM12.0397 13.2445C8.81586 13.2445 6.50108 11.6391 4.96435 9.98418C4.1962 9.15695 3.633 8.32736 3.26234 7.70466C3.07744 7.39402 2.94162 7.13684 2.85315 6.95989C2.80894 6.87148 2.77664 6.80327 2.75602 6.75863C2.74572 6.73632 2.73834 6.71992 2.73386 6.70985C2.73162 6.70482 2.7299 6.70089 2.72911 6.69908C2.72909 6.69904 2.72914 6.69916 2.72911 6.69908C2.72921 6.69931 2.72911 6.69908 2.03975 6.99452C1.35039 7.28996 1.35024 7.28962 1.35039 7.28996C1.35045 7.29011 1.35089 7.29112 1.35102 7.29142C1.35127 7.29201 1.35158 7.29272 1.35193 7.29352C1.35262 7.29514 1.35351 7.29718 1.35458 7.29964C1.35673 7.30455 1.35963 7.31114 1.36328 7.31935C1.37058 7.33577 1.3809 7.35867 1.39428 7.38763C1.42102 7.44554 1.46001 7.52772 1.51151 7.63071C1.61444 7.83658 1.76769 8.12627 1.97341 8.47188C2.384 9.16168 3.0083 10.0821 3.86515 11.0048C5.57842 12.8499 8.26364 14.7445 12.0397 14.7445V13.2445ZM15.3522 12.6253C14.3818 13.0073 13.2814 13.2445 12.0397 13.2445V14.7445C13.4779 14.7445 14.7643 14.4687 15.9016 14.0211L15.3522 12.6253ZM7.82392 12.9142L6.41111 15.0855L7.66839 15.9035L9.08119 13.7322L7.82392 12.9142ZM22.0397 6.99452C21.3503 6.69908 21.3502 6.69922 21.3503 6.69908C21.3504 6.69892 21.3508 6.69801 21.3508 6.69812C21.3507 6.69832 21.3504 6.69904 21.3498 6.70028C21.3487 6.70275 21.3467 6.70727 21.3438 6.71376C21.338 6.72675 21.3286 6.74761 21.3155 6.77577C21.2892 6.83209 21.2483 6.91747 21.1923 7.02719C21.0803 7.24679 20.9087 7.56283 20.6751 7.93772C20.2066 8.68968 19.496 9.66649 18.5264 10.5765L19.553 11.6702C20.642 10.648 21.4314 9.56039 21.9482 8.73098C22.2073 8.3152 22.3997 7.96132 22.5286 7.70867C22.593 7.58227 22.6417 7.48095 22.675 7.40959C22.6916 7.37391 22.7044 7.3457 22.7134 7.32556C22.7179 7.31549 22.7215 7.30744 22.7241 7.30148C22.7254 7.2985 22.7264 7.29605 22.7273 7.29412C22.7277 7.29316 22.728 7.29233 22.7283 7.29164C22.7285 7.29129 22.729 7.29024 22.7291 7.28996C22.7291 7.29003 22.7292 7.28982 22.7291 7.28996C22.7292 7.28979 22.7291 7.28996 22.0397 6.99452ZM18.5264 10.5765C17.6674 11.3827 16.6136 12.1288 15.3522 12.6253L15.9016 14.0211C17.3752 13.4411 18.5863 12.5775 19.553 11.6702L18.5264 10.5765ZM18.5094 11.6537L20.0094 13.1537L21.07 12.093L19.57 10.593L18.5094 11.6537ZM11.2897 13.9945V16.4945H12.7897V13.9945H11.2897ZM14.9983 13.7322L16.4111 15.9035L17.6683 15.0855L16.2555 12.9142L14.9983 13.7322ZM4.50942 10.593L3.00942 12.093L4.07008 13.1537L5.57008 11.6537L4.50942 10.593Z" fill="#1C1C1C"/>
</svg>
