<svg width="25" height="24" viewBox="0 0 25 24" fill="none" xmlns="http://www.w3.org/2000/svg">
<path d="M3.31468 15.2902C2.46475 14.186 2.03979 13.6339 2.03979 11.9945C2.03979 10.3551 2.46475 9.80304 3.31468 8.69884C5.01175 6.49407 7.8579 3.99451 12.0398 3.99451C16.2217 3.99451 19.0678 6.49407 20.7649 8.69884C21.6148 9.80304 22.0398 10.3551 22.0398 11.9945C22.0398 13.6339 21.6148 14.186 20.7649 15.2902C19.0678 17.4949 16.2217 19.9945 12.0398 19.9945C7.8579 19.9945 5.01175 17.4949 3.31468 15.2902Z" stroke="#1C1C1C" stroke-width="1.5"/>
<path d="M15.0398 11.9945C15.0398 13.6514 13.6967 14.9945 12.0398 14.9945C10.3829 14.9945 9.03979 13.6514 9.03979 11.9945C9.03979 10.3376 10.3829 8.99451 12.0398 8.99451C13.6967 8.99451 15.0398 10.3376 15.0398 11.9945Z" stroke="#1C1C1C" stroke-width="1.5"/>
</svg>
