<svg width="17" height="17" viewBox="0 0 17 17" fill="none" xmlns="http://www.w3.org/2000/svg">
<mask id="mask0_6_887" style="mask-type:luminance" maskUnits="userSpaceOnUse" x="0" y="0" width="17" height="17">
<path d="M16.5099 6.86625H8.70928V10.0957H13.1994C12.7808 12.1474 11.0304 13.3252 8.70928 13.3252C5.96955 13.3252 3.76255 11.1216 3.76255 8.38601C3.76255 5.65044 5.96955 3.4468 8.70928 3.4468C9.88888 3.4468 10.9543 3.86474 11.7915 4.54863L14.2268 2.11701C12.7428 0.825216 10.8402 0.0273438 8.70928 0.0273438C4.06696 0.0273438 0.337891 3.75075 0.337891 8.38601C0.337891 13.0213 4.06696 16.7447 8.70928 16.7447C12.895 16.7447 16.7001 13.7052 16.7001 8.38601C16.7001 7.89208 16.624 7.36017 16.5099 6.86625Z" fill="white"/>
</mask>
<g mask="url(#mask0_6_887)">
<path d="M-0.423096 13.3252V3.44679L6.0457 8.386L-0.423096 13.3252Z" fill="#FBBC05"/>
</g>
<mask id="mask1_6_887" style="mask-type:luminance" maskUnits="userSpaceOnUse" x="0" y="0" width="17" height="17">
<path d="M16.5099 6.86625H8.70928V10.0957H13.1994C12.7808 12.1474 11.0304 13.3252 8.70928 13.3252C5.96955 13.3252 3.76255 11.1216 3.76255 8.38601C3.76255 5.65044 5.96955 3.4468 8.70928 3.4468C9.88888 3.4468 10.9543 3.86474 11.7915 4.54863L14.2268 2.11701C12.7428 0.825216 10.8402 0.0273438 8.70928 0.0273438C4.06696 0.0273438 0.337891 3.75075 0.337891 8.38601C0.337891 13.0213 4.06696 16.7447 8.70928 16.7447C12.895 16.7447 16.7001 13.7052 16.7001 8.38601C16.7001 7.89208 16.624 7.36017 16.5099 6.86625Z" fill="white"/>
</mask>
<g mask="url(#mask1_6_887)">
<path d="M-0.423096 3.4468L6.0457 8.38601L8.70932 6.06839L17.8417 4.58662V-0.732529H-0.423096V3.4468Z" fill="#EA4335"/>
</g>
<mask id="mask2_6_887" style="mask-type:luminance" maskUnits="userSpaceOnUse" x="0" y="0" width="17" height="17">
<path d="M16.5099 6.86625H8.70928V10.0957H13.1994C12.7808 12.1474 11.0304 13.3252 8.70928 13.3252C5.96955 13.3252 3.76255 11.1216 3.76255 8.38601C3.76255 5.65044 5.96955 3.4468 8.70928 3.4468C9.88888 3.4468 10.9543 3.86474 11.7915 4.54863L14.2268 2.11701C12.7428 0.825216 10.8402 0.0273438 8.70928 0.0273438C4.06696 0.0273438 0.337891 3.75075 0.337891 8.38601C0.337891 13.0213 4.06696 16.7447 8.70928 16.7447C12.895 16.7447 16.7001 13.7052 16.7001 8.38601C16.7001 7.89208 16.624 7.36017 16.5099 6.86625Z" fill="white"/>
</mask>
<g mask="url(#mask2_6_887)">
<path d="M-0.423096 13.3252L10.9924 4.58662L13.9985 4.96656L17.8417 -0.732529V17.5046H-0.423096V13.3252Z" fill="#34A853"/>
</g>
<mask id="mask3_6_887" style="mask-type:luminance" maskUnits="userSpaceOnUse" x="0" y="0" width="17" height="17">
<path d="M16.5099 6.86625H8.70928V10.0957H13.1994C12.7808 12.1474 11.0304 13.3252 8.70928 13.3252C5.96955 13.3252 3.76255 11.1216 3.76255 8.38601C3.76255 5.65044 5.96955 3.4468 8.70928 3.4468C9.88888 3.4468 10.9543 3.86474 11.7915 4.54863L14.2268 2.11701C12.7428 0.825216 10.8402 0.0273438 8.70928 0.0273438C4.06696 0.0273438 0.337891 3.75075 0.337891 8.38601C0.337891 13.0213 4.06696 16.7447 8.70928 16.7447C12.895 16.7447 16.7001 13.7052 16.7001 8.38601C16.7001 7.89208 16.624 7.36017 16.5099 6.86625Z" fill="white"/>
</mask>
<g mask="url(#mask3_6_887)">
<path d="M17.8417 17.5045L6.04563 8.386L4.52356 7.24618L17.8417 3.44679V17.5045Z" fill="#4285F4"/>
</g>
</svg>
