<svg width="23" height="22" viewBox="0 0 23 22" fill="none" xmlns="http://www.w3.org/2000/svg">
<path d="M1.34375 11.3947C1.34375 9.10629 1.34375 7.96208 1.86295 7.01354C2.38215 6.06501 3.3307 5.47631 5.22778 4.29893L7.22778 3.05767C9.23314 1.81309 10.2358 1.1908 11.3438 1.1908C12.4517 1.1908 13.4543 1.81309 15.4597 3.05767L17.4597 4.29892C19.3568 5.47631 20.3054 6.06501 20.8246 7.01354C21.3438 7.96208 21.3438 9.10629 21.3438 11.3947V12.9158C21.3438 16.8166 21.3437 18.7671 20.1721 19.9789C19.0006 21.1908 17.1149 21.1908 13.3438 21.1908H9.34375C5.57251 21.1908 3.6869 21.1908 2.51532 19.9789C1.34375 18.7671 1.34375 16.8166 1.34375 12.9158V11.3947Z" stroke="#429CB4" stroke-width="1.5"/>
</svg>
