<svg width="25" height="25" viewBox="0 0 15 15" fill="none" xmlns="http://www.w3.org/2000/svg">
<path d="M2.5 6.33956C2.5 3.52867 4.73857 1.25 7.5 1.25C10.2614 1.25 12.5 3.52867 12.5 6.33956C12.5 9.12844 10.9042 12.3827 8.41431 13.5465C7.83394 13.8178 7.16606 13.8178 6.58569 13.5465C4.09583 12.3827 2.5 9.12844 2.5 6.33956Z" stroke="white"/>
<path d="M7.5 8.125C8.53553 8.125 9.375 7.28553 9.375 6.25C9.375 5.21447 8.53553 4.375 7.5 4.375C6.46447 4.375 5.625 5.21447 5.625 6.25C5.625 7.28553 6.46447 8.125 7.5 8.125Z" stroke="white" stroke-width="1.5"/>
</svg>
